<svg width="512" height="494" viewBox="0 0 512 494" fill="none" xmlns="http://www.w3.org/2000/svg">
<path fill-rule="evenodd" clip-rule="evenodd" d="M63.9992 0C28.6544 0 0 27.5931 0 61.6288L0.00439458 246.52C0.00439458 382.673 114.613 493.037 256.003 493.037C397.394 493.037 512.002 382.673 512.002 246.52V61.6288C512.002 27.5931 483.348 0 448.003 0H63.9992ZM102.395 123.258C102.395 136.873 113.855 147.913 127.994 147.913H384.004C398.143 147.913 409.603 136.873 409.603 123.258C409.603 109.642 398.143 98.607 384.004 98.607H127.994C113.855 98.607 102.395 109.642 102.395 123.258ZM150.909 299.886C138.525 310.894 137.41 329.856 148.417 342.24C159.425 354.623 178.387 355.738 190.77 344.731L256.173 286.595L321.575 344.731C333.959 355.738 352.921 354.623 363.928 342.24C374.936 329.856 373.821 310.894 361.437 299.886L276.104 224.034C264.737 213.931 247.608 213.931 236.242 224.034L150.909 299.886Z" fill="white"/>
</svg>
