<svg width="24" height="24" viewBox="0 0 24 24" fill="none" xmlns="http://www.w3.org/2000/svg">
<path fill-rule="evenodd" clip-rule="evenodd" d="M7.34346 7.72409V8.07765H5.90855C5.48108 8.07765 5.11827 8.39117 5.0563 8.81413L4.84727 10.2407C4.43909 13.0266 4.43909 15.857 4.84727 18.6429C5.03017 19.8912 6.03676 20.8562 7.29163 20.9863L7.89276 21.0487C10.5464 21.3239 13.2214 21.3239 15.875 21.0487L16.4762 20.9863C17.731 20.8562 18.7376 19.8912 18.9205 18.6429C19.3287 15.857 19.3287 13.0266 18.9205 10.2407L18.7115 8.81413C18.6495 8.39117 18.2867 8.07765 17.8592 8.07765H16.4243V7.7241C16.4243 5.65199 15.0215 3.84275 13.0147 3.32671C12.2729 3.13597 11.4949 3.13597 10.7531 3.32671C8.74632 3.84275 7.34346 5.65198 7.34346 7.72409ZM12.6576 4.71536C12.15 4.58485 11.6177 4.58485 11.1102 4.71536C9.73713 5.06844 8.77728 6.30634 8.77728 7.72409V8.07765H14.9905V7.7241C14.9905 6.30634 14.0307 5.06844 12.6576 4.71536ZM8.77728 9.51147C8.77728 9.11554 8.45631 8.79456 8.06037 8.79456C7.66443 8.79456 7.34346 9.11554 7.34346 9.51147V11.4232C7.34346 11.8192 7.66443 12.1402 8.06037 12.1402C8.45631 12.1402 8.77728 11.8192 8.77728 11.4232V9.51147ZM16.4243 9.51147C16.4243 9.11554 16.1034 8.79456 15.7074 8.79456C15.3115 8.79456 14.9905 9.11554 14.9905 9.51147V11.4232C14.9905 11.8192 15.3115 12.1402 15.7074 12.1402C16.1034 12.1402 16.4243 11.8192 16.4243 11.4232V9.51147Z" fill="#EC9D40"/>
</svg>
